<mxfile host="app.diagrams.net" agent="Mozilla/5.0 (Windows NT 10.0; Win64; x64) AppleWebKit/537.36 (KHTML, like Gecko) Chrome/133.0.0.0 Safari/537.36 OPR/118.0.0.0" version="26.2.14">
  <diagram name="Page-1" id="0QqEKJOdWaZv5oudFrub">
    <mxGraphModel dx="763" dy="643" grid="1" gridSize="10" guides="1" tooltips="1" connect="1" arrows="1" fold="1" page="1" pageScale="1" pageWidth="850" pageHeight="1100" math="0" shadow="0">
      <root>
        <mxCell id="0" />
        <mxCell id="1" parent="0" />
        <mxCell id="2-XZgbAZPTYqwpdwnT-i-36" value="" style="group" vertex="1" connectable="0" parent="1">
          <mxGeometry x="510.27000000000004" y="630" width="60.269999999999996" height="40" as="geometry" />
        </mxCell>
        <mxCell id="2-XZgbAZPTYqwpdwnT-i-21" value="" style="verticalLabelPosition=bottom;sketch=0;aspect=fixed;html=1;verticalAlign=top;strokeColor=none;align=center;outlineConnect=0;shape=mxgraph.citrix.router;" vertex="1" parent="2-XZgbAZPTYqwpdwnT-i-36">
          <mxGeometry width="60.27" height="40" as="geometry" />
        </mxCell>
        <mxCell id="2-XZgbAZPTYqwpdwnT-i-22" value="r5" style="text;html=1;align=center;verticalAlign=middle;resizable=0;points=[];autosize=1;strokeColor=none;fillColor=none;" vertex="1" parent="2-XZgbAZPTYqwpdwnT-i-36">
          <mxGeometry x="15.14" y="10" width="30" height="30" as="geometry" />
        </mxCell>
        <mxCell id="2-XZgbAZPTYqwpdwnT-i-39" value="" style="group" vertex="1" connectable="0" parent="1">
          <mxGeometry x="149.99999999999997" y="630" width="60.269999999999996" height="40" as="geometry" />
        </mxCell>
        <mxCell id="2-XZgbAZPTYqwpdwnT-i-10" value="" style="verticalLabelPosition=bottom;sketch=0;aspect=fixed;html=1;verticalAlign=top;strokeColor=none;align=center;outlineConnect=0;shape=mxgraph.citrix.router;" vertex="1" parent="2-XZgbAZPTYqwpdwnT-i-39">
          <mxGeometry width="60.27" height="40" as="geometry" />
        </mxCell>
        <mxCell id="2-XZgbAZPTYqwpdwnT-i-15" value="r4" style="text;html=1;align=center;verticalAlign=middle;resizable=0;points=[];autosize=1;strokeColor=none;fillColor=none;" vertex="1" parent="2-XZgbAZPTYqwpdwnT-i-39">
          <mxGeometry x="15.139999999999986" y="10" width="30" height="30" as="geometry" />
        </mxCell>
        <mxCell id="2-XZgbAZPTYqwpdwnT-i-42" value="" style="group" vertex="1" connectable="0" parent="1">
          <mxGeometry x="510.27" y="260" width="60.26999999999998" height="40" as="geometry" />
        </mxCell>
        <mxCell id="2-XZgbAZPTYqwpdwnT-i-4" value="" style="verticalLabelPosition=bottom;sketch=0;aspect=fixed;html=1;verticalAlign=top;strokeColor=none;align=center;outlineConnect=0;shape=mxgraph.citrix.router;" vertex="1" parent="2-XZgbAZPTYqwpdwnT-i-42">
          <mxGeometry width="60.27" height="40" as="geometry" />
        </mxCell>
        <mxCell id="2-XZgbAZPTYqwpdwnT-i-14" value="r3" style="text;html=1;align=center;verticalAlign=middle;resizable=0;points=[];autosize=1;strokeColor=none;fillColor=none;" vertex="1" parent="2-XZgbAZPTYqwpdwnT-i-42">
          <mxGeometry x="15.129999999999995" y="10" width="30" height="30" as="geometry" />
        </mxCell>
        <mxCell id="2-XZgbAZPTYqwpdwnT-i-43" value="" style="group" vertex="1" connectable="0" parent="1">
          <mxGeometry x="330" y="260" width="60.26999999999998" height="40" as="geometry" />
        </mxCell>
        <mxCell id="2-XZgbAZPTYqwpdwnT-i-5" value="" style="verticalLabelPosition=bottom;sketch=0;aspect=fixed;html=1;verticalAlign=top;strokeColor=none;align=center;outlineConnect=0;shape=mxgraph.citrix.router;" vertex="1" parent="2-XZgbAZPTYqwpdwnT-i-43">
          <mxGeometry width="60.27" height="40" as="geometry" />
        </mxCell>
        <mxCell id="2-XZgbAZPTYqwpdwnT-i-13" value="r2" style="text;html=1;align=center;verticalAlign=middle;resizable=0;points=[];autosize=1;strokeColor=none;fillColor=none;" vertex="1" parent="2-XZgbAZPTYqwpdwnT-i-43">
          <mxGeometry x="15.129999999999995" y="10" width="30" height="30" as="geometry" />
        </mxCell>
        <mxCell id="2-XZgbAZPTYqwpdwnT-i-44" value="" style="group" vertex="1" connectable="0" parent="1">
          <mxGeometry x="330" y="390" width="60.27000000000001" height="40" as="geometry" />
        </mxCell>
        <mxCell id="2-XZgbAZPTYqwpdwnT-i-3" value="" style="verticalLabelPosition=bottom;sketch=0;aspect=fixed;html=1;verticalAlign=top;strokeColor=none;align=center;outlineConnect=0;shape=mxgraph.citrix.router;" vertex="1" parent="2-XZgbAZPTYqwpdwnT-i-44">
          <mxGeometry width="60.27" height="40" as="geometry" />
        </mxCell>
        <mxCell id="2-XZgbAZPTYqwpdwnT-i-12" value="r1" style="text;html=1;align=center;verticalAlign=middle;resizable=0;points=[];autosize=1;strokeColor=none;fillColor=none;" vertex="1" parent="2-XZgbAZPTYqwpdwnT-i-44">
          <mxGeometry x="15.129999999999995" y="10" width="30" height="30" as="geometry" />
        </mxCell>
        <mxCell id="2-XZgbAZPTYqwpdwnT-i-47" value="n0: 172.21.0.0/24&lt;span style=&quot;background-color: transparent; color: light-dark(rgb(0, 0, 0), rgb(255, 255, 255));&quot;&gt;&amp;nbsp;&lt;/span&gt;" style="text;html=1;align=center;verticalAlign=middle;resizable=0;points=[];autosize=1;strokeColor=none;fillColor=none;rotation=0;" vertex="1" parent="1">
          <mxGeometry x="360" y="460" width="120" height="30" as="geometry" />
        </mxCell>
        <mxCell id="2-XZgbAZPTYqwpdwnT-i-49" value="n1: 172.21.1.0/24&lt;span style=&quot;background-color: transparent; color: light-dark(rgb(0, 0, 0), rgb(255, 255, 255));&quot;&gt;&amp;nbsp;&lt;/span&gt;" style="text;html=1;align=center;verticalAlign=middle;resizable=0;points=[];autosize=1;strokeColor=none;fillColor=none;rotation=0;" vertex="1" parent="1">
          <mxGeometry x="360" y="330" width="120" height="30" as="geometry" />
        </mxCell>
        <mxCell id="2-XZgbAZPTYqwpdwnT-i-51" value="n2: 172.21.2.0/24&lt;span style=&quot;background-color: transparent; color: light-dark(rgb(0, 0, 0), rgb(255, 255, 255));&quot;&gt;&amp;nbsp;&lt;/span&gt;" style="text;html=1;align=center;verticalAlign=middle;resizable=0;points=[];autosize=1;strokeColor=none;fillColor=none;rotation=0;" vertex="1" parent="1">
          <mxGeometry x="360" y="590" width="120" height="30" as="geometry" />
        </mxCell>
        <mxCell id="2-XZgbAZPTYqwpdwnT-i-52" value="n3: 172.21.3.0/24&lt;span style=&quot;background-color: transparent; color: light-dark(rgb(0, 0, 0), rgb(255, 255, 255));&quot;&gt;&amp;nbsp;&lt;/span&gt;" style="text;html=1;align=center;verticalAlign=middle;resizable=0;points=[];autosize=1;strokeColor=none;fillColor=none;rotation=0;" vertex="1" parent="1">
          <mxGeometry x="150" y="525" width="120" height="30" as="geometry" />
        </mxCell>
        <mxCell id="2-XZgbAZPTYqwpdwnT-i-53" value="n4: 172.21.4.0/24&lt;span style=&quot;background-color: transparent; color: light-dark(rgb(0, 0, 0), rgb(255, 255, 255));&quot;&gt;&amp;nbsp;&lt;/span&gt;" style="text;html=1;align=center;verticalAlign=middle;resizable=0;points=[];autosize=1;strokeColor=none;fillColor=none;rotation=0;" vertex="1" parent="1">
          <mxGeometry x="540" y="460" width="120" height="30" as="geometry" />
        </mxCell>
        <mxCell id="2-XZgbAZPTYqwpdwnT-i-60" value="" style="endArrow=none;html=1;rounded=0;" edge="1" parent="1" source="2-XZgbAZPTYqwpdwnT-i-3" target="2-XZgbAZPTYqwpdwnT-i-5">
          <mxGeometry width="50" height="50" relative="1" as="geometry">
            <mxPoint x="240" y="500" as="sourcePoint" />
            <mxPoint x="360" y="340" as="targetPoint" />
          </mxGeometry>
        </mxCell>
        <mxCell id="2-XZgbAZPTYqwpdwnT-i-61" value="" style="endArrow=none;html=1;rounded=0;" edge="1" parent="1" source="2-XZgbAZPTYqwpdwnT-i-10" target="2-XZgbAZPTYqwpdwnT-i-21">
          <mxGeometry width="50" height="50" relative="1" as="geometry">
            <mxPoint x="229.73" y="730" as="sourcePoint" />
            <mxPoint x="529.73" y="730" as="targetPoint" />
          </mxGeometry>
        </mxCell>
        <mxCell id="2-XZgbAZPTYqwpdwnT-i-62" value="" style="endArrow=none;html=1;rounded=0;" edge="1" parent="1" source="2-XZgbAZPTYqwpdwnT-i-64">
          <mxGeometry width="50" height="50" relative="1" as="geometry">
            <mxPoint x="359.73" y="570" as="sourcePoint" />
            <mxPoint x="360" y="650" as="targetPoint" />
          </mxGeometry>
        </mxCell>
        <mxCell id="2-XZgbAZPTYqwpdwnT-i-63" value="" style="group" vertex="1" connectable="0" parent="1">
          <mxGeometry x="330" y="520" width="60.269999999999996" height="40" as="geometry" />
        </mxCell>
        <mxCell id="2-XZgbAZPTYqwpdwnT-i-64" value="" style="verticalLabelPosition=bottom;sketch=0;aspect=fixed;html=1;verticalAlign=top;strokeColor=none;align=center;outlineConnect=0;shape=mxgraph.citrix.router;" vertex="1" parent="2-XZgbAZPTYqwpdwnT-i-63">
          <mxGeometry width="60.27" height="40" as="geometry" />
        </mxCell>
        <mxCell id="2-XZgbAZPTYqwpdwnT-i-65" value="r0" style="text;html=1;align=center;verticalAlign=middle;resizable=0;points=[];autosize=1;strokeColor=none;fillColor=none;" vertex="1" parent="2-XZgbAZPTYqwpdwnT-i-63">
          <mxGeometry x="15.14" y="10" width="30" height="30" as="geometry" />
        </mxCell>
        <mxCell id="2-XZgbAZPTYqwpdwnT-i-66" value="" style="endArrow=none;html=1;rounded=0;" edge="1" parent="1" source="2-XZgbAZPTYqwpdwnT-i-3" target="2-XZgbAZPTYqwpdwnT-i-64">
          <mxGeometry width="50" height="50" relative="1" as="geometry">
            <mxPoint x="280" y="525" as="sourcePoint" />
            <mxPoint x="280" y="405" as="targetPoint" />
          </mxGeometry>
        </mxCell>
        <mxCell id="2-XZgbAZPTYqwpdwnT-i-67" value="" style="endArrow=none;html=1;rounded=0;" edge="1" parent="1" source="2-XZgbAZPTYqwpdwnT-i-3" target="2-XZgbAZPTYqwpdwnT-i-10">
          <mxGeometry width="50" height="50" relative="1" as="geometry">
            <mxPoint x="90.27000000000001" y="470" as="sourcePoint" />
            <mxPoint x="390.27" y="470" as="targetPoint" />
          </mxGeometry>
        </mxCell>
        <mxCell id="2-XZgbAZPTYqwpdwnT-i-68" value="" style="endArrow=none;html=1;rounded=0;" edge="1" parent="1" source="2-XZgbAZPTYqwpdwnT-i-4" target="2-XZgbAZPTYqwpdwnT-i-21">
          <mxGeometry width="50" height="50" relative="1" as="geometry">
            <mxPoint x="520" y="440" as="sourcePoint" />
            <mxPoint x="820" y="440" as="targetPoint" />
          </mxGeometry>
        </mxCell>
      </root>
    </mxGraphModel>
  </diagram>
</mxfile>
